<svg xmlns="http://www.w3.org/2000/svg" width="19.276" height="25.477" viewBox="0 0 19.276 25.477"><defs><style>.a,.b{fill:none;stroke-miterlimit:10;}.b{stroke:#11c76f;stroke-linecap:round;stroke-linejoin:round;stroke-width:1.5px;}.c,.e{fill:#11c76f;}.c{font-size:8px;font-family:ProximaNova-Bold, Proxima Nova;font-weight:700;}.d,.e{stroke:none;}</style></defs><g transform="translate(-632.086 -3700.5)"><g transform="translate(633.586 3702)"><g class="a" transform="translate(-869.463 -425.197)"><path class="d" d="M874.648,425.631l-4.751,4.751a1.483,1.483,0,0,0-.435,1.048v14.761a1.483,1.483,0,0,0,1.483,1.483h13.311a1.483,1.483,0,0,0,1.482-1.483V426.679a1.483,1.483,0,0,0-1.482-1.482H875.7A1.482,1.482,0,0,0,874.648,425.631Z"/><path class="e" d="M 875.696533203125 425.1969909667969 C 875.3033447265625 425.1969909667969 874.9262084960938 425.3529663085938 874.648193359375 425.6310424804688 L 869.8975830078125 430.382080078125 C 869.6194458007812 430.66015625 869.4630126953125 431.0372924804688 869.4630126953125 431.4305114746094 L 869.4630126953125 446.1911010742188 C 869.4630126953125 447.0101318359375 870.126953125 447.6739807128906 870.9459228515625 447.6739807128906 L 884.2571411132812 447.6739807128906 C 885.07568359375 447.6739807128906 885.739501953125 447.0101318359375 885.739501953125 446.1911010742188 L 885.739501953125 426.6794738769531 C 885.739501953125 425.86083984375 885.07568359375 425.1969909667969 884.2571411132812 425.1969909667969 L 875.696533203125 425.1969909667969 M 875.696533203125 423.6969909667969 L 884.2571411132812 423.6969909667969 C 885.901611328125 423.6969909667969 887.239501953125 425.034912109375 887.239501953125 426.6794738769531 L 887.239501953125 446.1911010742188 C 887.239501953125 447.8358764648438 885.901611328125 449.1739807128906 884.2571411132812 449.1739807128906 L 870.9459228515625 449.1739807128906 C 869.3011474609375 449.1739807128906 867.9630126953125 447.8358764648438 867.9630126953125 446.1911010742188 L 867.9630126953125 431.4305114746094 C 867.9630126953125 430.6338806152344 868.2734375 429.8847961425781 868.8370361328125 429.3213195800781 L 873.5874633789062 424.5704345703125 C 874.1505737304688 424.0072021484375 874.8995971679688 423.6969909667969 875.696533203125 423.6969909667969 Z"/></g><path class="b" d="M875.7,425.2v4.976a1.257,1.257,0,0,1-1.257,1.258h-4.976" transform="translate(-869.463 -425.197)"/></g><text class="c" transform="translate(634.5 3722)"><tspan x="0" y="0">.pdf</tspan></text></g></svg>